<svg width="15" height="26" viewBox="0 0 15 26" fill="none" xmlns="http://www.w3.org/2000/svg">
<path d="M0.839991 25.0133C0.99481 25.1685 1.17873 25.2916 1.38121 25.3757C1.5837 25.4597 1.80077 25.5029 2.01999 25.5029C2.23922 25.5029 2.45629 25.4597 2.65877 25.3757C2.86126 25.2916 3.04517 25.1685 3.19999 25.0133L14.28 13.9333C14.4036 13.8099 14.5017 13.6634 14.5686 13.5021C14.6355 13.3408 14.6699 13.1679 14.6699 12.9933C14.6699 12.8187 14.6355 12.6457 14.5686 12.4844C14.5017 12.3232 14.4036 12.1766 14.28 12.0533L3.19999 0.973278C2.54666 0.319946 1.49332 0.319946 0.839991 0.973278C0.186657 1.62661 0.186657 2.67995 0.839991 3.33328L10.4933 12.9999L0.82666 22.6666C0.18666 23.3066 0.186657 24.3733 0.839991 25.0133Z" fill="#224D73"/>
</svg>
